<svg width="24" height="24" viewBox="0 0 24 24" fill="none" xmlns="http://www.w3.org/2000/svg">
<g clip-path="url(#clip0_1074_16116)">
<path d="M8.48438 21.1875H15.5156V24H8.48438V21.1875Z" fill="#CDF0E1"/>
<path d="M12.0004 4.21875C6.46037 4.21875 3.11466 10.3577 6.05457 15.0043C6.66582 15.9702 7.50029 16.7709 8.48476 17.34V19.7812H11.2973V12.7981L9.50101 11.6006L10.2811 10.4306L12.0004 11.5769L13.7198 10.4306L14.4998 11.6007L12.7035 12.7981V19.7812H15.516V17.34C16.5005 16.7708 17.335 15.9702 17.9462 15.0043C20.8852 10.3591 17.5425 4.21875 12.0004 4.21875Z" fill="#CDF0E1"/>
<path d="M21.1406 10.5469H23.25V11.9531H21.1406V10.5469Z" fill="#CDF0E1"/>
<path d="M0.75 10.5469H2.85938V11.9531H0.75V10.5469Z" fill="#CDF0E1"/>
<path d="M17.9639 4.29102L19.4552 2.79969L20.4494 3.79391L18.9581 5.28523L17.9639 4.29102Z" fill="#CDF0E1"/>
<path d="M11.2969 0H12.7031V2.10938H11.2969V0Z" fill="#CDF0E1"/>
<path d="M3.54688 3.79248L4.54109 2.79826L6.03242 4.28959L5.0382 5.28381L3.54688 3.79248Z" fill="#CDF0E1"/>
</g>
<defs>
<clipPath id="clip0_1074_16116">
<rect width="24" height="24" fill="white"/>
</clipPath>
</defs>
</svg>
