<svg width="24" height="24" viewBox="0 0 24 24" fill="none" xmlns="http://www.w3.org/2000/svg">
<path d="M5.68359 6.87088C5.86692 11.6822 8.18986 16.1536 12 19.0534C15.8198 16.1461 18.1455 11.6602 18.3179 6.87088C16.1082 6.54609 13.9872 5.86288 12 4.83496C10.0129 5.86288 7.89323 6.54609 5.68359 6.87088ZM16.0128 9.69505L11.2969 14.411L8.69044 11.8045L9.6847 10.8102L11.2969 12.4224L15.0186 8.70079L16.0128 9.69505Z" fill="#CDF0E1"/>
<path d="M22.4665 2.84667L21.738 2.87278C16.1731 3.075 12.1466 0.0536719 12 0C11.8551 0.05325 7.93917 3.09919 2.15625 2.87002H1.45312V6.29845C1.45312 18.832 11.8589 23.8592 12 24C15.0943 22.2336 22.5469 16.9142 22.5469 6.29841V3.57309L22.4665 2.84667ZM19.7344 6.25584C19.7344 15.8745 12.1288 20.6417 12 20.7894C11.8773 20.6488 4.26562 16.1059 4.26562 6.29841V5.6715L4.88841 5.5575C9.02213 5.08012 11.7383 3.35377 12 3.2408C12.2644 3.35498 14.8976 5.07084 19.1116 5.55755L19.7344 5.62894V6.25584Z" fill="#CDF0E1"/>
</svg>
