<svg width="24" height="24" viewBox="0 0 24 24" fill="none" xmlns="http://www.w3.org/2000/svg">
<g clip-path="url(#clip0_1074_16103)">
<path d="M1.09961 6.34814L1.80257 5.13061L5.20733 7.0964L4.50436 8.31394L1.09961 6.34814Z" fill="#CDF0E1"/>
<path d="M1.09961 17.6523L4.50436 15.6866L5.20733 16.9041L1.80257 18.8699L1.09961 17.6523Z" fill="#CDF0E1"/>
<path d="M5.53906 1.70361L6.7566 1.00065L8.01319 3.17707L6.79566 3.88004L5.53906 1.70361Z" fill="#CDF0E1"/>
<path d="M0 11.2974H2.51319V12.7033H0V11.2974Z" fill="#CDF0E1"/>
<path d="M5.53809 22.2969L6.79468 20.1205L8.01222 20.8234L6.75562 22.9998L5.53809 22.2969Z" fill="#CDF0E1"/>
<path d="M23.9997 11.2972H22.6044L23.5229 10.0785L22.4001 9.23224L20.8439 11.2972H18.1971L16.8962 8.15652L18.7678 6.2849L21.3283 6.64458L21.5239 5.25229L20.0127 5.04004L20.9993 4.05346L20.0051 3.05932L19.0185 4.04596L18.8063 2.53463L17.414 2.73024L17.7737 5.29081L15.9021 7.16239L12.7614 5.86148V3.21463L14.8264 1.65832L13.9801 0.535589L12.7614 1.45408V0.00292969H11.3555V1.45418L10.1367 0.535683L9.29047 1.65841L11.3555 3.21473V4.77104C7.67895 5.12576 4.79492 8.23244 4.79492 12.0004C4.79492 15.7684 7.679 18.875 11.3555 19.2298V20.7857L9.29047 22.342L10.1367 23.4647L11.3555 22.5462V23.9974H12.7614V22.5462L13.9801 23.4647L14.8264 22.342L12.7614 20.7857V18.1389L15.9021 16.838L17.7737 18.7096L17.414 21.2701L18.8063 21.4657L19.0185 19.9544L20.0051 20.9411L20.9993 19.9469L20.0127 18.9603L21.5239 18.7481L21.3283 17.3558L18.7678 17.7155L16.8962 15.8439L18.1971 12.7032H20.8439L22.4001 14.7681L23.5229 13.9219L22.6044 12.7032H23.9997V11.2972ZM16.6753 11.2972H13.7555L15.8201 9.23262L16.6753 11.2972ZM14.826 8.23844L12.7613 10.3031V7.38326L14.826 8.23844ZM12.7614 16.6171V13.6972L14.826 15.7619L12.7614 16.6171ZM15.8201 14.7678L13.7555 12.7032H16.6753L15.8201 14.7678Z" fill="#CDF0E1"/>
</g>
<defs>
<clipPath id="clip0_1074_16103">
<rect width="24" height="24" fill="white"/>
</clipPath>
</defs>
</svg>
