<svg width="24" height="24" viewBox="0 0 24 24" fill="none" xmlns="http://www.w3.org/2000/svg">
<path d="M3.5293 10.1544V21.1763H6.14751C5.36883 19.8412 4.94106 18.3062 4.94106 16.7122V12.7444H5.6293C6.40897 12.7444 7.04106 12.1123 7.04106 11.3327V10.6444H16.9587V11.3327C16.9587 12.1123 17.5908 12.7444 18.3705 12.7444H19.0587V16.7122C19.0587 18.3062 18.6309 19.8412 17.8522 21.1763H20.4705C20.4705 21.1763 20.4705 13.5414 20.4705 10.137L12.0005 5.65479C10.6414 6.37671 6.76671 8.43479 3.5293 10.1544Z" fill="#CDF0E1"/>
<path d="M12 0.0498047C11.334 0.430369 0.665977 6.5259 0 6.90646V10.4306C0.415435 10.2099 11.4816 4.33197 11.9993 4.05696L11.9997 4.0571L12 4.05729C15.5525 5.93724 20.3374 8.46938 24 10.4076C24 10.0129 24 7.32242 24 6.90646C23.334 6.5259 12.666 0.430369 12 0.0498047Z" fill="#CDF0E1"/>
<path d="M15.5467 12.762C15.5467 12.5152 15.5467 12.303 15.5467 12.0562C13.3707 12.0562 10.6302 12.0562 8.45254 12.0562V12.762C8.45254 13.5308 7.82717 14.1562 7.05842 14.1562C6.81155 14.1562 6.59941 14.1562 6.35254 14.1562V16.7121C6.35254 19.3064 7.66972 21.5538 9.62012 22.8772C10.7988 23.677 11.8778 23.9056 11.9996 23.9498C12.1209 23.9058 13.2 23.6772 14.3791 22.8772C16.3069 21.5691 17.6467 19.3322 17.6467 16.7122C17.6467 15.4423 17.6467 14.8986 17.6467 14.1562C17.3998 14.1562 17.1876 14.1562 16.9408 14.1562C16.1721 14.1562 15.5467 13.5308 15.5467 12.762ZM11.2509 20.0956L9.25437 18.0991L10.2526 17.1008L11.2509 18.0991C12.0115 17.3385 12.9406 16.4094 13.7466 15.6034L14.7448 16.6017C14.3925 16.9539 11.6031 19.7434 11.2509 20.0956Z" fill="#CDF0E1"/>
</svg>
