<svg width="12" height="13" viewBox="0 0 12 13" fill="none" xmlns="http://www.w3.org/2000/svg">
<path fill-rule="evenodd" clip-rule="evenodd" d="M3.5 1.5C3.22386 1.5 3 1.72386 3 2V2.5H2.5C1.67157 2.5 1 3.17157 1 4V10C1 10.8284 1.67157 11.5 2.5 11.5H9.5C10.3284 11.5 11 10.8284 11 10V4C11 3.17157 10.3284 2.5 9.5 2.5H9V2C9 1.72386 8.77614 1.5 8.5 1.5C8.22386 1.5 8 1.72386 8 2V2.5H4V2C4 1.72386 3.77614 1.5 3.5 1.5ZM4.5 7C4.5 6.72386 4.72386 6.5 5 6.5H8.5C8.77614 6.5 9 6.72386 9 7C9 7.27614 8.77614 7.5 8.5 7.5H5C4.72386 7.5 4.5 7.27614 4.5 7ZM3 9C3 8.72386 3.22386 8.5 3.5 8.5H6.5C6.77614 8.5 7 8.72386 7 9C7 9.27614 6.77614 9.5 6.5 9.5H3.5C3.22386 9.5 3 9.27614 3 9Z" fill="#8F8F8F"/>
</svg>
