<svg width="32" height="32" viewBox="0 0 32 32" fill="none" xmlns="http://www.w3.org/2000/svg">
<g clip-path="url(#clip0_583_4987)">
<path d="M32 16.0009C31.9995 12.9433 31.123 9.94992 29.4741 7.37504C27.8252 4.80017 25.4731 2.75166 22.6962 1.47203C19.9192 0.192408 16.8338 -0.264748 13.8051 0.154688C10.7765 0.574123 7.93139 1.85259 5.60674 3.83872C3.28208 5.82486 1.57519 8.43549 0.688139 11.3616C-0.198914 14.2876 -0.228982 17.4066 0.601496 20.3492C1.43197 23.2919 3.08822 25.9349 5.37415 27.9655C7.66009 29.9961 10.48 31.3292 13.5 31.8069V20.6259H9.438V16.0009H13.5V12.4759C13.5 8.46591 15.889 6.25091 19.543 6.25091C20.743 6.26755 21.9402 6.37183 23.125 6.56291V10.5009H21.107C20.7631 10.4552 20.4134 10.4875 20.0837 10.5954C19.754 10.7033 19.4528 10.884 19.2024 11.1241C18.952 11.3642 18.7589 11.6575 18.6373 11.9824C18.5157 12.3073 18.4688 12.6554 18.5 13.0009V16.0009H22.938L22.228 20.6259H18.5V31.8069C22.2638 31.2115 25.6915 29.2923 28.1663 26.3948C30.6412 23.4972 32.0006 19.8115 32 16.0009Z" fill="#363636"/>
</g>
<defs>
<clipPath id="clip0_583_4987">
<rect width="32" height="32" fill="white"/>
</clipPath>
</defs>
</svg>
