<svg width="20" height="21" viewBox="0 0 20 21" fill="none" xmlns="http://www.w3.org/2000/svg">
<path fill-rule="evenodd" clip-rule="evenodd" d="M15.0001 6.33325C15.0001 9.09468 12.7615 11.3333 10.0001 11.3333C7.23866 11.3333 5.00008 9.09468 5.00008 6.33325C5.00008 3.57183 7.23866 1.33325 10.0001 1.33325C12.7615 1.33325 15.0001 3.57183 15.0001 6.33325ZM13.3334 6.33325C13.3334 8.1742 11.841 9.66658 10.0001 9.66658C8.15913 9.66658 6.66675 8.1742 6.66675 6.33325C6.66675 4.4923 8.15913 2.99992 10.0001 2.99992C11.841 2.99992 13.3334 4.4923 13.3334 6.33325Z" fill="#797979"/>
<path fill-rule="evenodd" clip-rule="evenodd" d="M10.0001 12.1666C7.5542 12.1666 5.79066 12.6739 4.52562 13.4347C3.25552 14.1985 2.54214 15.1853 2.14819 16.0483C1.81612 16.7758 1.96726 17.5172 2.40845 18.0454C2.82901 18.5489 3.48291 18.8333 4.16679 18.8333H15.8334C16.5173 18.8333 17.1712 18.5489 17.5917 18.0454C18.0329 17.5172 18.1841 16.7759 17.852 16.0484C17.4581 15.1853 16.7448 14.1985 15.4747 13.4347C14.2096 12.674 12.4461 12.1666 10.0001 12.1666ZM3.66437 16.7404C3.93784 16.1413 4.44016 15.4309 5.38454 14.863C6.33396 14.292 7.78365 13.8333 10.0001 13.8333C12.2167 13.8333 13.6663 14.2921 14.6157 14.863C15.5601 15.4309 16.0624 16.1413 16.3358 16.7404C16.3681 16.8112 16.3667 16.8537 16.3635 16.8754C16.3598 16.9002 16.3476 16.9351 16.3126 16.9769C16.2375 17.0669 16.07 17.1666 15.8334 17.1666H4.16679C3.93018 17.1666 3.76272 17.0669 3.68758 16.9769C3.6526 16.9351 3.64043 16.9002 3.63673 16.8754C3.63349 16.8537 3.63208 16.8112 3.66437 16.7404Z" fill="#797979"/>
</svg>
