<svg width="20" height="21" viewBox="0 0 20 21" fill="none" xmlns="http://www.w3.org/2000/svg">
<path d="M16.0182 13.2235L13.9015 12.9818C13.3932 12.9235 12.8932 13.0985 12.5349 13.4568L11.0015 14.9901C8.6432 13.7901 6.70986 11.8651 5.50986 9.49847L7.05153 7.9568C7.40986 7.59847 7.58486 7.09847 7.52653 6.59014L7.28486 4.49014C7.18486 3.64847 6.47653 3.01514 5.62653 3.01514H4.18486C3.2432 3.01514 2.45986 3.79847 2.5182 4.74014C2.95986 11.8568 8.65153 17.5401 15.7599 17.9818C16.7015 18.0401 17.4849 17.2568 17.4849 16.3151V14.8735C17.4932 14.0318 16.8599 13.3235 16.0182 13.2235Z" fill="#797979"/>
</svg>
