<svg width="92" height="72" viewBox="0 0 92 72" fill="none" xmlns="http://www.w3.org/2000/svg">
<path d="M36.2289 66.4692C27.8643 74.2465 13.6193 72.1901 6.94958 63.9553C-0.944261 54.2295 -2.52043 35.7963 11.2317 19.3072C18.0529 11.1284 26.2736 4.92732 35.8853 0.703857L40.3183 7.84353C26.6453 14.4692 16.4257 23.4526 14.9775 38.5139C21.1466 38.5139 26.265 38.2904 30.8238 39.9217C36.0142 41.779 39.1668 45.2234 40.4607 49.1731C42.5133 55.3573 41.5183 61.5512 36.2289 66.4692ZM85.8043 66.4692C77.4397 74.2465 63.1947 72.1901 56.525 63.9553C48.6312 54.2295 47.055 35.7963 60.8071 19.3072C67.6284 11.1284 75.849 4.92732 85.4608 0.703857L89.8937 7.84353C76.2207 14.4692 66.0012 23.4526 64.5529 38.5139C70.722 38.5139 75.8404 38.2904 80.3993 39.9217C85.5896 41.779 88.7423 45.2234 90.0362 49.1731C92.0887 55.3573 91.0937 61.5512 85.8043 66.4692Z" fill="#E9E9E9"/>
</svg>
