<svg width="17" height="17" viewBox="0 0 17 17" fill="none" xmlns="http://www.w3.org/2000/svg">
<g clip-path="url(#clip0_112_979)">
<path d="M0.796733 6.79999H16.2033V5.66666H0.796733V6.79999ZM15.8667 6.46339V6.96092H17V6.46339H15.8667ZM14.0375 15.8667H2.96253V17H14.0375V15.8667ZM1.13333 6.96092V6.46339H0V6.96092H1.13333ZM3.28213 16.0639C1.86898 13.2375 1.13329 10.1209 1.13333 6.96092H0C0 10.2975 0.776333 13.5875 2.26893 16.5716L3.28213 16.0639ZM2.96253 15.8667C3.09853 15.8667 3.22207 15.9437 3.28213 16.0639L2.26893 16.5716C2.33345 16.7003 2.43249 16.8085 2.55498 16.8842C2.67746 16.9598 2.81857 16.9999 2.96253 17V15.8667ZM13.7179 16.0639C13.7476 16.0045 13.7932 15.9547 13.8496 15.9198C13.9061 15.885 13.9711 15.8666 14.0375 15.8667V17C14.3321 17 14.5996 16.8345 14.7311 16.5716L13.7179 16.0639ZM15.8667 6.96092C15.8667 10.1207 15.13 13.2373 13.7179 16.0639L14.7311 16.5716C16.2232 13.5876 17 10.2972 17 6.96092H15.8667ZM16.2033 6.79999C16.114 6.79999 16.0284 6.76453 15.9653 6.7014C15.9021 6.63828 15.8667 6.55266 15.8667 6.46339H17C17 6.25208 16.9161 6.04943 16.7666 5.90001C16.6172 5.7506 16.4146 5.66666 16.2033 5.66666V6.79999ZM0.796733 5.66666C0.585427 5.66666 0.382774 5.7506 0.233358 5.90001C0.0839413 6.04943 0 6.25208 0 6.46339H1.13333C1.13333 6.55266 1.09787 6.63828 1.03475 6.7014C0.971621 6.76453 0.886005 6.79999 0.796733 6.79999V5.66666ZM4.45287 6.52459L7.85287 0.857924L6.87933 0.275391L3.47933 5.94206L4.45287 6.52459ZM9.14713 0.857924L12.5471 6.52459L13.5195 5.94206L10.1195 0.275391L9.14713 0.857924Z" fill="white"/>
</g>
<defs>
<clipPath id="clip0_112_979">
<rect width="17" height="17" fill="white"/>
</clipPath>
</defs>
</svg>
