<svg width="17" height="17" viewBox="0 0 17 17" fill="none" xmlns="http://www.w3.org/2000/svg">
<path d="M16.8962 16.3954L11.7237 11.2228C12.798 10.0299 13.4584 8.45713 13.4584 6.72914C13.4583 3.01873 10.4396 0 6.72918 0C3.01873 0 0 3.01873 0 6.72918C0 10.4396 3.01873 13.4584 6.72918 13.4584C8.45717 13.4584 10.0299 12.798 11.2229 11.7237L16.3954 16.8962C16.4646 16.9654 16.5552 17 16.6459 17C16.7365 17 16.8271 16.9654 16.8963 16.8962C17.0346 16.7579 17.0346 16.5338 16.8962 16.3954ZM6.72918 12.75C3.40956 12.75 0.708355 10.0491 0.708355 6.72918C0.708355 3.40923 3.40956 0.708322 6.72918 0.708322C10.0488 0.708322 12.75 3.4092 12.75 6.72918C12.75 10.0492 10.0488 12.75 6.72918 12.75Z" fill="white"/>
</svg>
