<svg width="32" height="32" viewBox="0 0 32 32" fill="none" xmlns="http://www.w3.org/2000/svg">
<circle cx="16" cy="16" r="15" stroke="#292929" stroke-width="2"/>
<g clip-path="url(#clip0_583_4905)">
<path fill-rule="evenodd" clip-rule="evenodd" d="M7.9707 11C7.9707 10.4696 8.16902 9.96086 8.52203 9.58579C8.87504 9.21071 9.35382 9 9.85306 9H21.1472C21.6464 9 22.1252 9.21071 22.4782 9.58579C22.8312 9.96086 23.0295 10.4696 23.0295 11V21C23.0295 21.5304 22.8312 22.0391 22.4782 22.4142C22.1252 22.7893 21.6464 23 21.1472 23H9.85306C9.35382 23 8.87504 22.7893 8.52203 22.4142C8.16902 22.0391 7.9707 21.5304 7.9707 21V11ZM8.91188 20L11.4022 17.646C11.4792 17.5646 11.5802 17.5139 11.6883 17.5026C11.7964 17.4913 11.9048 17.5201 11.9952 17.584L14.4987 19.357L17.9905 15.647C18.0603 15.5728 18.1503 15.5238 18.2477 15.5069C18.3452 15.49 18.4452 15.5061 18.5335 15.553L22.0883 17.5V21C22.0883 21.2652 21.9892 21.5196 21.8127 21.7071C21.6362 21.8946 21.3968 22 21.1472 22H9.85306C9.60344 22 9.36405 21.8946 9.18754 21.7071C9.01104 21.5196 8.91188 21.2652 8.91188 21V20ZM13.6178 13.5C13.6178 13.8978 13.469 14.2794 13.2043 14.5607C12.9395 14.842 12.5804 15 12.206 15C11.8316 15 11.4725 14.842 11.2077 14.5607C10.943 14.2794 10.7942 13.8978 10.7942 13.5C10.7942 13.1022 10.943 12.7206 11.2077 12.4393C11.4725 12.158 11.8316 12 12.206 12C12.5804 12 12.9395 12.158 13.2043 12.4393C13.469 12.7206 13.6178 13.1022 13.6178 13.5Z" fill="#292929"/>
</g>
<defs>
<clipPath id="clip0_583_4905">
<rect width="16" height="16" fill="white" transform="translate(7.5 8)"/>
</clipPath>
</defs>
</svg>
