<svg width="50" height="50" viewBox="0 0 50 50" fill="none" xmlns="http://www.w3.org/2000/svg">
<path d="M25.0002 12.5C27.2918 12.5 29.1668 14.375 29.1668 16.6667C29.1668 18.9583 27.2918 20.8333 25.0002 20.8333C22.7085 20.8333 20.8335 18.9583 20.8335 16.6667C20.8335 14.375 22.7085 12.5 25.0002 12.5ZM25.0002 31.25C30.6252 31.25 37.0835 33.9375 37.5002 35.4167V37.5H12.5002V35.4375C12.9168 33.9375 19.3752 31.25 25.0002 31.25ZM25.0002 8.33333C20.396 8.33333 16.6668 12.0625 16.6668 16.6667C16.6668 21.2708 20.396 25 25.0002 25C29.6043 25 33.3335 21.2708 33.3335 16.6667C33.3335 12.0625 29.6043 8.33333 25.0002 8.33333ZM25.0002 27.0833C19.4377 27.0833 8.3335 29.875 8.3335 35.4167V41.6667H41.6668V35.4167C41.6668 29.875 30.5627 27.0833 25.0002 27.0833Z" fill="#363636"/>
</svg>
