<svg width="32" height="32" viewBox="0 0 32 32" fill="none" xmlns="http://www.w3.org/2000/svg">
<path d="M16 3.7C20 3.7 20.48 3.715 22.061 3.787C23.0125 3.79823 23.9549 3.97311 24.847 4.304C25.4983 4.54443 26.0874 4.92783 26.571 5.426C27.0692 5.90957 27.4526 6.49869 27.693 7.15C28.0239 8.04213 28.1988 8.98455 28.21 9.936C28.282 11.52 28.3 12 28.3 16C28.3 20 28.285 20.48 28.213 22.061C28.2018 23.0124 28.0269 23.9549 27.696 24.847C27.4463 25.4936 27.0641 26.0809 26.574 26.571C26.0839 27.0611 25.4966 27.4433 24.85 27.693C23.9579 28.0239 23.0155 28.1988 22.064 28.21C20.483 28.282 20.008 28.297 16.003 28.297C11.998 28.297 11.523 28.282 9.942 28.21C8.99055 28.1988 8.04813 28.0239 7.156 27.693C6.50469 27.4526 5.91557 27.0692 5.432 26.571C4.93383 26.0874 4.55043 25.4983 4.31 24.847C3.97911 23.9549 3.80423 23.0124 3.793 22.061C3.718 20.48 3.7 20.005 3.7 16C3.7 11.995 3.715 11.52 3.787 9.939C3.79823 8.98755 3.97311 8.04513 4.304 7.153C4.54531 6.50141 4.92975 5.91227 5.429 5.429C5.91257 4.93083 6.50169 4.54743 7.153 4.307C8.04513 3.97611 8.98755 3.80123 9.939 3.79C11.52 3.718 12 3.7 16 3.7ZM16 1C11.926 1 11.415 1.017 9.816 1.09C8.57122 1.11637 7.33986 1.35304 6.174 1.79C5.17376 2.16644 4.26745 2.75609 3.518 3.518C2.75501 4.26716 2.16432 5.17349 1.787 6.174C1.35004 7.33986 1.11337 8.57122 1.087 9.816C1.017 11.415 1 11.926 1 16C1 20.074 1.017 20.585 1.09 22.184C1.11637 23.4288 1.35304 24.6601 1.79 25.826C2.16732 26.8265 2.75801 27.7328 3.521 28.482C4.27016 29.245 5.17649 29.8357 6.177 30.213C7.34286 30.65 8.57422 30.8866 9.819 30.913C11.419 30.986 11.929 31.003 16.003 31.003C20.077 31.003 20.588 30.986 22.187 30.913C23.4318 30.8866 24.6631 30.65 25.829 30.213C26.8251 29.8269 27.7296 29.2374 28.485 28.482C29.2404 27.7266 29.8299 26.822 30.216 25.826C30.653 24.6601 30.8896 23.4288 30.916 22.184C30.989 20.584 31.006 20.074 31.006 16C31.006 11.926 30.989 11.415 30.916 9.816C30.8896 8.57122 30.653 7.33986 30.216 6.174C29.8387 5.17349 29.248 4.26716 28.485 3.518C27.7358 2.75501 26.8295 2.16432 25.829 1.787C24.6631 1.35004 23.4318 1.11337 22.187 1.087C20.585 1.017 20.074 1 16 1Z" fill="#363636"/>
<path d="M16 8.3C14.4771 8.3 12.9884 8.7516 11.7221 9.59768C10.4558 10.4438 9.4689 11.6463 8.88611 13.0533C8.30332 14.4603 8.15083 16.0085 8.44794 17.5022C8.74504 18.9958 9.4784 20.3679 10.5553 21.4447C11.6321 22.5216 13.0041 23.2549 14.4978 23.552C15.9914 23.8492 17.5397 23.6967 18.9466 23.1139C20.3536 22.5311 21.5562 21.5441 22.4023 20.2779C23.2484 19.0116 23.7 17.5229 23.7 16C23.7 13.9578 22.8887 11.9993 21.4447 10.5553C20.0007 9.11125 18.0421 8.3 16 8.3ZM16 21C15.0111 21 14.0444 20.7068 13.2221 20.1573C12.3999 19.6079 11.759 18.827 11.3806 17.9134C11.0021 16.9998 10.9031 15.9945 11.0961 15.0245C11.289 14.0546 11.7652 13.1637 12.4644 12.4645C13.1637 11.7652 14.0546 11.289 15.0245 11.0961C15.9944 10.9031 16.9998 11.0022 17.9134 11.3806C18.827 11.759 19.6079 12.3999 20.1573 13.2221C20.7067 14.0444 21 15.0111 21 16C21 17.3261 20.4732 18.5979 19.5355 19.5355C18.5978 20.4732 17.3261 21 16 21Z" fill="#363636"/>
<path d="M24.007 9.793C25.0011 9.793 25.807 8.98711 25.807 7.993C25.807 6.99889 25.0011 6.193 24.007 6.193C23.0129 6.193 22.207 6.99889 22.207 7.993C22.207 8.98711 23.0129 9.793 24.007 9.793Z" fill="#363636"/>
</svg>
