<svg width="25" height="24" viewBox="0 0 25 24" fill="none" xmlns="http://www.w3.org/2000/svg">
<g clip-path="url(#clip0_1302_8752)">
<path d="M14.2999 9.61597V12C14.3001 12.1593 14.2369 12.3118 14.1244 12.4245C14.0119 12.537 13.8591 12.6001 13.7001 12.6001H11.3C11.1409 12.6001 10.9882 12.537 10.8757 12.4245C10.763 12.3118 10.6999 12.1593 10.6999 12V9.61597C9.89396 10.2141 9.44461 11.1789 9.50548 12.1808C9.56634 13.1828 10.1293 14.0861 11.0018 14.5822C11.1864 14.6897 11.3 14.8872 11.3 15.1008V17.8788C12.0919 18.0405 12.9082 18.0405 13.7001 17.8788V15.1008C13.6998 14.8872 13.8134 14.6897 13.9982 14.5822C14.8708 14.0861 15.4337 13.1828 15.4946 12.1808C15.5554 11.1789 15.1061 10.2141 14.2999 9.61597Z" fill="white"/>
<path d="M12.5 6C9.65963 5.9978 7.20748 7.98919 6.62675 10.7696C6.04601 13.55 7.4962 16.3564 10.1002 17.4913V15.4289C8.80797 14.5355 8.12704 12.9921 8.33798 11.4356C8.54891 9.87883 9.61591 8.57234 11.0991 8.05488C11.2828 7.98963 11.4869 8.01753 11.6462 8.13003C11.8055 8.24253 11.9002 8.42534 11.9002 8.62024V11.4H13.1001V8.62024C13.1001 8.42512 13.195 8.24231 13.3543 8.13003C13.5141 8.01863 13.7173 7.99072 13.901 8.05488C15.3844 8.57234 16.4514 9.87883 16.6623 11.4356C16.8733 12.9921 16.1921 14.5355 14.9001 15.4289V17.4915C17.5041 16.3566 18.9545 13.5502 18.3738 10.7696C17.793 7.98897 15.3407 5.99759 12.5 6Z" fill="white"/>
<path d="M23.9 9.60007H22.41C22.1644 8.57197 21.7583 7.58914 21.207 6.68738L22.2582 5.63621C22.4924 5.40198 22.4924 5.02185 22.2582 4.78762L19.7122 2.24187C19.4743 2.01687 19.1018 2.01687 18.8639 2.24187L17.8127 3.29304C16.9109 2.74153 15.9281 2.33569 14.9 2.09004V0.600073C14.9 0.440771 14.8369 0.288281 14.7244 0.175562C14.6117 0.0630615 14.4592 0 14.2999 0H10.6999C10.5408 0 10.3881 0.0630615 10.2756 0.175562C10.1631 0.288281 10.0999 0.440771 10.1001 0.600073V2.09004C9.07197 2.33569 8.08914 2.74153 7.18738 3.29304L6.13621 2.24187C5.90198 2.00742 5.52185 2.00742 5.28762 2.24187L2.74187 4.78762C2.50742 5.02185 2.50742 5.40198 2.74187 5.63621L3.79304 6.68738C3.24153 7.58914 2.83569 8.57197 2.59004 9.60007H1.10007C0.940771 9.59985 0.788281 9.66313 0.675562 9.77563C0.563062 9.88813 0.5 10.0408 0.5 10.1999V13.7999C0.5 13.9592 0.563062 14.1117 0.675562 14.2244C0.788281 14.3369 0.940771 14.4 1.10007 14.4H2.59004C2.83569 15.4281 3.24153 16.4109 3.79304 17.3127L2.74187 18.3639C2.50742 18.5981 2.50742 18.978 2.74187 19.2122L5.28784 21.7582C5.52581 21.9832 5.89824 21.9832 6.13621 21.7582L7.18738 20.707C8.08914 21.2583 9.07197 21.6644 10.1001 21.91V23.4C10.0999 23.5591 10.1631 23.7118 10.2756 23.8243C10.3881 23.937 10.5408 24.0001 10.6999 24.0001H14.2999C14.4592 24.0001 14.6117 23.937 14.7244 23.8243C14.8369 23.7118 14.9 23.5591 14.9 23.4V21.91C15.9281 21.6644 16.9109 21.2583 17.8127 20.707L18.8639 21.7582C19.0981 21.9924 19.478 21.9924 19.7122 21.7582L22.2582 19.2122C22.4927 18.978 22.4927 18.5981 22.2582 18.3639L21.207 17.3127C21.7583 16.4109 22.1644 15.4281 22.41 14.4H23.9C24.0591 14.4 24.2118 14.3369 24.3243 14.2244C24.437 14.1117 24.5001 13.9592 24.5001 13.7999V10.1999C24.5001 10.0408 24.437 9.88813 24.3243 9.77563C24.2118 9.66313 24.0591 9.59985 23.9 9.60007ZM12.4999 19.1999C8.52353 19.1999 5.29993 15.9765 5.29993 11.9999C5.29993 8.02353 8.52353 4.79993 12.4999 4.79993C16.4765 4.79993 19.6999 8.02353 19.6999 11.9999C19.6958 15.9746 16.4746 19.1958 12.4999 19.1999Z" fill="white"/>
</g>
<defs>
<clipPath id="clip0_1302_8752">
<rect width="24" height="24" fill="white" transform="translate(0.5)"/>
</clipPath>
</defs>
</svg>
