<svg width="23" height="24" viewBox="0 0 23 24" fill="none" xmlns="http://www.w3.org/2000/svg">
<path d="M5.18359 6.87113C5.36692 11.6825 7.68986 16.1539 11.5 19.0536C15.3198 16.1464 17.6455 11.6605 17.8179 6.87113C15.6082 6.54633 13.4872 5.86313 11.5 4.83521C9.51288 5.86313 7.39323 6.54633 5.18359 6.87113ZM15.5128 9.6953L10.7969 14.4112L8.19044 11.8047L9.1847 10.8105L10.7969 12.4227L14.5186 8.70103L15.5128 9.6953Z" fill="white"/>
<path d="M21.9665 2.84667L21.238 2.87278C15.6731 3.075 11.6466 0.0536719 11.5 0C11.3551 0.05325 7.43917 3.09919 1.65625 2.87002H0.953125V6.29845C0.953125 18.832 11.3589 23.8592 11.5 24C14.5943 22.2336 22.0469 16.9142 22.0469 6.29841V3.57309L21.9665 2.84667ZM19.2344 6.25584C19.2344 15.8745 11.6288 20.6417 11.5 20.7894C11.3773 20.6488 3.76562 16.1059 3.76562 6.29841V5.6715L4.38841 5.5575C8.52213 5.08012 11.2383 3.35377 11.5 3.2408C11.7644 3.35498 14.3976 5.07084 18.6116 5.55755L19.2344 5.62894V6.25584Z" fill="white"/>
</svg>
