<svg width="32" height="32" viewBox="0 0 32 32" fill="none" xmlns="http://www.w3.org/2000/svg">
<path d="M22.9391 5.92905C21.8251 4.65732 21.2112 3.02413 21.2117 1.3335H16.1761V21.5409C16.1373 22.6344 15.6756 23.6702 14.8883 24.4301C14.1011 25.1901 13.0496 25.6148 11.9554 25.615C9.64132 25.615 7.71836 23.7246 7.71836 21.3779C7.71836 18.575 10.4235 16.4728 13.2102 17.3365V12.1868C7.58799 11.4372 2.6665 15.8046 2.6665 21.3779C2.6665 26.8046 7.16428 30.6668 11.9391 30.6668C17.0561 30.6668 21.2117 26.5113 21.2117 21.3779V11.1276C23.2536 12.594 25.7052 13.3808 28.2191 13.3765V8.3409C28.2191 8.3409 25.1554 8.48757 22.9391 5.92905Z" fill="#363636"/>
</svg>
