<svg width="12" height="13" viewBox="0 0 12 13" fill="none" xmlns="http://www.w3.org/2000/svg">
<g clip-path="url(#clip0_650_5387)">
<path d="M2.26517 0.984835C2.41161 1.13128 2.41161 1.36872 2.26517 1.51517L0.765165 3.01517C0.618718 3.16161 0.381282 3.16161 0.234835 3.01517C0.0883883 2.86872 0.0883883 2.63128 0.234835 2.48483L1.73483 0.984835C1.88128 0.838388 2.11872 0.838388 2.26517 0.984835Z" fill="#8F8F8F"/>
<path fill-rule="evenodd" clip-rule="evenodd" d="M6 1.375C3.03147 1.375 0.625 3.78147 0.625 6.75C0.625 9.71853 3.03147 12.125 6 12.125C8.96853 12.125 11.375 9.71853 11.375 6.75C11.375 3.78147 8.96853 1.375 6 1.375ZM6 4.375C6.20711 4.375 6.375 4.54289 6.375 4.75V6.54931L7.70801 7.43798C7.88034 7.55286 7.9269 7.78569 7.81202 7.95801C7.69714 8.13034 7.46431 8.1769 7.29199 8.06202L5.79199 7.06202C5.68766 6.99247 5.625 6.87538 5.625 6.75V4.75C5.625 4.54289 5.79289 4.375 6 4.375Z" fill="#8F8F8F"/>
<path d="M9.73483 1.51517C9.58839 1.36872 9.58839 1.13128 9.73483 0.984835C9.88128 0.838388 10.1187 0.838388 10.2652 0.984835L11.7652 2.48483C11.9116 2.63128 11.9116 2.86872 11.7652 3.01517C11.6187 3.16161 11.3813 3.16161 11.2348 3.01517L9.73483 1.51517Z" fill="#8F8F8F"/>
</g>
<defs>
<clipPath id="clip0_650_5387">
<rect width="12" height="12" fill="white" transform="translate(0 0.5)"/>
</clipPath>
</defs>
</svg>
